<mxfile host="app.diagrams.net" modified="2024-01-24T18:44:42.892Z" agent="Mozilla/5.0 (Windows NT 10.0; Win64; x64) AppleWebKit/537.36 (KHTML, like Gecko) Chrome/120.0.0.0 Safari/537.36" etag="T04EIkglha6QunRW169d" version="23.0.1" type="github">
  <diagram name="Page-1" id="s6_LhsdhWuPTmdsxQdcd">
    <mxGraphModel dx="1050" dy="566" grid="1" gridSize="10" guides="1" tooltips="1" connect="1" arrows="1" fold="1" page="1" pageScale="1" pageWidth="850" pageHeight="1100" math="0" shadow="0">
      <root>
        <mxCell id="0" />
        <mxCell id="1" parent="0" />
        <mxCell id="elwovzyXi2llCGxy-ekn-2" value="&lt;p style=&quot;line-height: 120%; font-size: 18px;&quot;&gt;Flowchart&lt;/p&gt;" style="rounded=0;whiteSpace=wrap;html=1;" vertex="1" parent="1">
          <mxGeometry x="365" y="250" width="120" height="60" as="geometry" />
        </mxCell>
        <mxCell id="elwovzyXi2llCGxy-ekn-4" value="" style="endArrow=classic;html=1;rounded=0;entryX=0.5;entryY=1;entryDx=0;entryDy=0;exitX=0.5;exitY=0;exitDx=0;exitDy=0;" edge="1" parent="1" source="elwovzyXi2llCGxy-ekn-6" target="elwovzyXi2llCGxy-ekn-2">
          <mxGeometry width="50" height="50" relative="1" as="geometry">
            <mxPoint x="425" y="400" as="sourcePoint" />
            <mxPoint x="450" y="270" as="targetPoint" />
          </mxGeometry>
        </mxCell>
        <mxCell id="elwovzyXi2llCGxy-ekn-6" value="&lt;font style=&quot;font-size: 20px;&quot;&gt;Node&lt;/font&gt;" style="rounded=1;whiteSpace=wrap;html=1;" vertex="1" parent="1">
          <mxGeometry x="290" y="360" width="120" height="60" as="geometry" />
        </mxCell>
        <mxCell id="elwovzyXi2llCGxy-ekn-7" value="&lt;font style=&quot;font-size: 20px;&quot;&gt;Branches&lt;/font&gt;" style="rounded=1;whiteSpace=wrap;html=1;" vertex="1" parent="1">
          <mxGeometry x="510" y="360" width="120" height="60" as="geometry" />
        </mxCell>
        <mxCell id="elwovzyXi2llCGxy-ekn-8" value="" style="endArrow=classic;html=1;rounded=0;entryX=0.75;entryY=1;entryDx=0;entryDy=0;exitX=0.5;exitY=0;exitDx=0;exitDy=0;" edge="1" parent="1" source="elwovzyXi2llCGxy-ekn-7" target="elwovzyXi2llCGxy-ekn-2">
          <mxGeometry width="50" height="50" relative="1" as="geometry">
            <mxPoint x="400" y="410" as="sourcePoint" />
            <mxPoint x="450" y="360" as="targetPoint" />
          </mxGeometry>
        </mxCell>
        <mxCell id="elwovzyXi2llCGxy-ekn-9" value="&lt;font style=&quot;font-size: 20px;&quot;&gt;Text&lt;/font&gt;" style="rounded=1;whiteSpace=wrap;html=1;" vertex="1" parent="1">
          <mxGeometry x="290" y="470" width="120" height="60" as="geometry" />
        </mxCell>
        <mxCell id="elwovzyXi2llCGxy-ekn-10" value="" style="endArrow=classic;html=1;rounded=0;entryX=0.5;entryY=1;entryDx=0;entryDy=0;exitX=0.5;exitY=0;exitDx=0;exitDy=0;" edge="1" parent="1" source="elwovzyXi2llCGxy-ekn-9" target="elwovzyXi2llCGxy-ekn-6">
          <mxGeometry width="50" height="50" relative="1" as="geometry">
            <mxPoint x="400" y="410" as="sourcePoint" />
            <mxPoint x="450" y="360" as="targetPoint" />
          </mxGeometry>
        </mxCell>
        <mxCell id="elwovzyXi2llCGxy-ekn-11" value="" style="endArrow=classic;html=1;rounded=0;entryX=1;entryY=0.5;entryDx=0;entryDy=0;exitX=0;exitY=0.5;exitDx=0;exitDy=0;" edge="1" parent="1" source="elwovzyXi2llCGxy-ekn-7" target="elwovzyXi2llCGxy-ekn-6">
          <mxGeometry width="50" height="50" relative="1" as="geometry">
            <mxPoint x="400" y="410" as="sourcePoint" />
            <mxPoint x="450" y="360" as="targetPoint" />
          </mxGeometry>
        </mxCell>
        <mxCell id="elwovzyXi2llCGxy-ekn-12" value="&lt;font style=&quot;font-size: 20px;&quot;&gt;Images&lt;/font&gt;" style="rounded=1;whiteSpace=wrap;html=1;" vertex="1" parent="1">
          <mxGeometry x="110" y="330" width="120" height="60" as="geometry" />
        </mxCell>
        <mxCell id="elwovzyXi2llCGxy-ekn-13" value="" style="endArrow=classic;html=1;rounded=0;entryX=0;entryY=0.5;entryDx=0;entryDy=0;exitX=1;exitY=0.5;exitDx=0;exitDy=0;" edge="1" parent="1" source="elwovzyXi2llCGxy-ekn-12" target="elwovzyXi2llCGxy-ekn-6">
          <mxGeometry width="50" height="50" relative="1" as="geometry">
            <mxPoint x="400" y="400" as="sourcePoint" />
            <mxPoint x="450" y="350" as="targetPoint" />
          </mxGeometry>
        </mxCell>
        <mxCell id="elwovzyXi2llCGxy-ekn-14" value="&lt;font style=&quot;font-size: 20px;&quot;&gt;Audio&lt;/font&gt;" style="rounded=1;whiteSpace=wrap;html=1;" vertex="1" parent="1">
          <mxGeometry x="110" y="460" width="120" height="60" as="geometry" />
        </mxCell>
        <mxCell id="elwovzyXi2llCGxy-ekn-15" value="" style="endArrow=classic;html=1;rounded=0;entryX=0;entryY=1;entryDx=0;entryDy=0;exitX=1;exitY=0;exitDx=0;exitDy=0;" edge="1" parent="1" source="elwovzyXi2llCGxy-ekn-14" target="elwovzyXi2llCGxy-ekn-6">
          <mxGeometry width="50" height="50" relative="1" as="geometry">
            <mxPoint x="400" y="390" as="sourcePoint" />
            <mxPoint x="450" y="340" as="targetPoint" />
          </mxGeometry>
        </mxCell>
        <mxCell id="elwovzyXi2llCGxy-ekn-16" value="&lt;font style=&quot;font-size: 20px;&quot;&gt;Website&lt;/font&gt;" style="rounded=1;whiteSpace=wrap;html=1;" vertex="1" parent="1">
          <mxGeometry x="570" y="150" width="120" height="60" as="geometry" />
        </mxCell>
        <mxCell id="elwovzyXi2llCGxy-ekn-17" value="" style="endArrow=classic;html=1;rounded=0;entryX=0;entryY=1;entryDx=0;entryDy=0;" edge="1" parent="1" target="elwovzyXi2llCGxy-ekn-16">
          <mxGeometry width="50" height="50" relative="1" as="geometry">
            <mxPoint x="490" y="250" as="sourcePoint" />
            <mxPoint x="450" y="240" as="targetPoint" />
          </mxGeometry>
        </mxCell>
        <mxCell id="elwovzyXi2llCGxy-ekn-18" value="&lt;font style=&quot;font-size: 20px;&quot;&gt;QR Code&lt;/font&gt;" style="rounded=1;whiteSpace=wrap;html=1;" vertex="1" parent="1">
          <mxGeometry x="570" y="40" width="120" height="60" as="geometry" />
        </mxCell>
        <mxCell id="elwovzyXi2llCGxy-ekn-19" value="" style="endArrow=classic;html=1;rounded=0;entryX=0.5;entryY=0;entryDx=0;entryDy=0;exitX=0.5;exitY=1;exitDx=0;exitDy=0;" edge="1" parent="1" source="elwovzyXi2llCGxy-ekn-18" target="elwovzyXi2llCGxy-ekn-16">
          <mxGeometry width="50" height="50" relative="1" as="geometry">
            <mxPoint x="400" y="280" as="sourcePoint" />
            <mxPoint x="450" y="230" as="targetPoint" />
          </mxGeometry>
        </mxCell>
      </root>
    </mxGraphModel>
  </diagram>
</mxfile>
